<svg xmlns="http://www.w3.org/2000/svg" viewBox="0 0 386.654 104.999" xmlns:xlink="http://www.w3.org/1999/xlink"><g transform="translate(-232 -373.39)"><defs><path id="a" d="M232 373.39h386.654v105H232z"/></defs><clipPath id="b"><use width="100%" height="100%" xlink:href="#a" overflow="visible"/></clipPath><path fill="#fff" d="M462.176 430.363c15.332-22.905 41.438-37.985 71.067-37.985 29.63 0 55.737 15.08 71.068 37.985h4.48c-21.93-34.263-60.33-56.973-104.03-56.973s-82.1 22.71-104.04 56.977h61.46zm-46.03 21.24c-.404-2.34-1.236-4.84-6.507-4.84-5.26 0-5.96 2.005-5.96 3.597 0 5.807 23.04 1.6 23.04 15.145 0 10.723-10.37 12.69-16.12 12.69-8.38 0-14.96-2.774-16.98-8.626l8.59-3.83c.55 2.95 2.58 5.12 8.64 5.12 4.99 0 6.17-2.44 6.17-3.83 0-6.15-22.83-1.53-22.83-15.28 0-5.4 3.4-12.33 14.89-12.33 7.19 0 15.76 1.8 16.52 12.17h-9.487zm37.93 3.53c-.555-5.936-4.355-7.746-7.485-7.746-4.56 0-6.97 2.91-7.53 7.746h15.02zm7.72 15.53c-2.528 4.65-8.065 7.53-14.373 7.53-10.368 0-18.323-5.02-18.323-20.162 0-4.4 1.522-18.6 17.643-18.6 7.27 0 17.294 3.47 17.294 20.27v1.73h-25.25c.272 2.79.833 9 8.637 9 2.7 0 5.213-1.29 6.062-3.53l8.31 3.77zm25.302-30.85c7.196 0 12.822 4.27 12.822 12.366v25.57h-9.688v-22.89c0-2.7-.146-7.27-6.276-7.27-8.04 0-7.626-.58-7.626 8.49v21.66h-9.306l-.03-37.95h8.902m51.874 19.48c-.952.76-2.585 1.37-6.585 2.01-3.594.61-6.563 1.52-6.563 5.52 0 3.39 2.627 4.442 4.49 4.442 4.303 0 8.658-2.79 8.658-7.264v-4.72zm9.37 18.46h-9.202c.043-3.12.168-4.21.1-4.92-2.24 2.3-5.316 5.35-11.89 5.35-5.554 0-11.224-3.12-11.224-10.72 0-7.21 4.564-10.88 10.73-11.78l8.72-1.32c1.534-.21 3.397-.82 3.397-2.904 0-4.08-3.87-4.29-6.36-4.29-4.85 0-5.34 2.8-5.81 4.155h-9.34c1.34-10.17 8.79-11.9 16.33-11.9 5.2 0 14.66 1.6 14.66 10.668V470" clip-path="url(#b)"/><path fill="#fff" d="M558.232 470.223c6.14 0 8.59-5.13 8.59-10.588 0-5.875-1.67-11.832-8.285-11.832-6.17 0-8.25 5.46-8.25 11.285 0 4.342 1.738 11.135 7.945 11.135m18.807 7.535h-9.48v-5.195h-.13c-2.38 4.145-6.66 5.63-10.66 5.63-10.94 0-15.52-9.706-15.52-19.802 0-12.73 7.19-18.95 15.3-18.95 6.21 0 9.14 3.4 10.66 5.74h.14v-14.83h9.68v47.42zm22.78-30.16c-7.47 0-8.82 6.498-8.82 11.205 0 4.736 1.35 11.215 8.82 11.215 7.46 0 8.86-6.48 8.86-11.215 0-4.707-1.4-11.205-8.86-11.205m0 30.595c-9.87 0-18.81-6.107-18.81-19.39 0-13.294 8.93-19.374 18.8-19.374 9.91 0 18.83 6.08 18.83 19.37 0 13.28-8.92 19.39-18.83 19.39M281.514 436.932c.005-2.576.01-6.938.01-9.832l-9.693 7.7v2.132h9.69zm27.636 33.448c6.155 0 8.615-5.15 8.615-10.636 0-5.898-1.675-11.887-8.312-11.887-6.207 0-8.29 5.494-8.29 11.338 0 4.37 1.748 11.184 7.987 11.184m18.88 7.57h-9.517v-5.23h-.14c-2.393 4.16-6.68 5.66-10.69 5.66-10.98 0-15.586-9.75-15.586-19.89 0-12.79 7.228-19.06 15.373-19.06 6.24 0 9.17 3.41 10.698 5.76h.147V430.3h9.714v47.63zm39.01-30.31c-7.5 0-8.862 6.53-8.862 11.26 0 4.75 1.36 11.26 8.86 11.26 7.49 0 8.894-6.51 8.894-11.26 0-4.73-1.403-11.27-8.893-11.27m0 30.74c-9.92 0-18.89-6.14-18.89-19.48 0-13.36 8.97-19.47 18.89-19.47 9.95 0 18.92 6.11 18.92 19.462 0 13.345-8.98 19.48-18.93 19.48M232 477.9c0-12.18.05-24.77.05-37.01 3.03 0 6.033-.01 9.01-.01.006 1.2.043 2.813.127 4.348 1.63-1.78 3.16-3.876 5.3-4.645 2.16-.79 4.54-.795 6.81-.715.06 1.7 0 7.98 0 9.57-1.32.05-2.36.1-3.45.14-4.82.18-7.58 2.72-8.04 7.49-.094.927-.105 1.86-.105 2.788-.015 5.14-.01 10.278-.01 15.417 0 .676-.06 1.83-.06 2.64H232zm46.54-18.5c-.95.76-2.59 1.373-6.61 2.008-3.61.616-6.598 1.53-6.598 5.558 0 3.41 2.654 4.47 4.522 4.47 4.307 0 8.683-2.8 8.683-7.3V459.4zm9.41 18.55h-9.235c.03-3.14.16-4.237.09-4.946-2.25 2.315-5.62 5.38-11.95 5.38-5.563 0-11.27-3.133-11.27-10.77 0-7.245 4.586-10.925 10.778-11.83l8.757-1.33c1.534-.21 3.408-.827 3.408-2.915 0-4.1-3.89-4.32-6.39-4.32-4.874 0-5.367 2.81-5.83 4.17h-9.397c1.36-10.22 8.84-11.96 16.41-11.96 5.21 0 14.72 1.6 14.72 10.71v20m56.05-29.85h-9.68v1.252c-.01 12.08-.01 24.15-.01 36.23h9.71c0-12.35 0-24.71-.01-37.07v-.42z" clip-path="url(#b)"/></g><path fill="#fff" d="M102.425 55.816h9.7v9.203h-9.7z"/></svg>